<svg xmlns="http://www.w3.org/2000/svg" width="64.5" height="58.741" viewBox="0 0 64.5 58.741">
  <g id="Path_45" data-name="Path 45" fill="none">
    <path d="M32.25,58.741C14.909,47.012,5.815,36.342,2.085,27.412-7.907,3.481,20.633-7.964,32.25,6.163,43.867-7.964,72.407,3.481,62.415,27.412,58.685,36.342,49.591,47.012,32.25,58.741Z" stroke="none"/>
    <path d="M 32.24999618530273 52.66222381591797 C 38.9158935546875 47.94654846191406 44.46854400634766 43.22927093505859 48.78385925292969 38.61286544799805 C 53.02331924438477 34.07758712768555 56.05716705322266 29.66087913513184 57.80087280273438 25.48597145080566 C 60.16315078735352 19.82809448242188 60.06061172485352 14.80912590026855 57.50431823730469 10.9716796875 C 56.29956436157227 9.163125991821289 54.55713272094727 7.651110649108887 52.46539688110352 6.599095344543457 C 50.38534927368164 5.552956581115723 48.05721282958984 5.000002861022949 45.73268890380859 5.000002861022949 C 41.82962799072266 5.000002861022949 38.41291809082031 6.541018486022949 36.1119499206543 9.339187622070313 L 32.24998092651367 14.03567981719971 L 28.38802719116211 9.339187622070313 C 26.08707237243652 6.541018486022949 22.67038154602051 5.000002861022949 18.76731872558594 5.000002861022949 C 16.44318008422852 5.000002861022949 14.11531925201416 5.552987575531006 12.03538036346436 6.59918737411499 C 9.943657875061035 7.651326179504395 8.201180458068848 9.163479804992676 6.996334552764893 10.97218799591064 C 4.439873218536377 14.80989551544189 4.337103843688965 19.82868003845215 6.698903560638428 25.48540306091309 C 8.442842483520508 29.66087913513184 11.47668838500977 34.07758712768555 15.71615028381348 38.61286544799805 C 20.03146362304688 43.22927093505859 25.58410453796387 47.94654846191406 32.24999618530273 52.66222381591797 M 32.24999618530273 58.74108123779297 C 14.90938091278076 47.01241683959961 5.814918994903564 36.34247970581055 2.085150003433228 27.41240310668945 C -4.917813301086426 10.63963890075684 7.007339477539063 9.148699973593466e-06 18.76732063293457 9.148699973593466e-06 C 23.78653907775879 9.148699973593466e-06 28.77497291564941 1.937525510787964 32.24999618530273 6.163464546203613 C 35.72431564331055 1.938387751579285 40.71450042724609 9.148699973593466e-06 45.73268508911133 9.148699973593466e-06 C 57.49367141723633 9.148699973593466e-06 69.41844177246094 10.6381778717041 62.41485595703125 27.41240310668945 C 58.68508911132813 36.34247970581055 49.59062576293945 47.01241683959961 32.24999618530273 58.74108123779297 Z" stroke="none" fill="#09839c"/>
  </g>
</svg>
