<svg xmlns="http://www.w3.org/2000/svg" width="35.816" height="21.09" viewBox="0 0 35.816 21.09">
  <g id="air-conditioner" transform="translate(0 0)">
    <path id="Path_64" data-name="Path 64" d="M161.593,243.778a1.049,1.049,0,0,1-.91-.525l-1.294-2.242a1.049,1.049,0,1,1,1.817-1.049L162.5,242.2a1.049,1.049,0,0,1-.907,1.574Zm0,0" transform="translate(-148.109 -222.688)" fill="#5d5d5d"/>
    <path id="Path_65" data-name="Path 65" d="M234.093,243.778a1.049,1.049,0,0,1-.91-.525l-1.294-2.242a1.049,1.049,0,1,1,1.817-1.049L235,242.2a1.049,1.049,0,0,1-.907,1.574Zm0,0" transform="translate(-215.537 -222.688)" fill="#5d5d5d"/>
    <path id="Path_66" data-name="Path 66" d="M306.593,243.778a1.049,1.049,0,0,1-.91-.525l-1.294-2.242a1.049,1.049,0,1,1,1.817-1.049L307.5,242.2a1.049,1.049,0,0,1-.908,1.574Zm0,0" transform="translate(-282.966 -222.688)" fill="#5d5d5d"/>
    <path id="Path_67" data-name="Path 67" d="M98.457,182.742l-.339,2.291h22.089l-.339-2.291Zm0,0" transform="translate(-91.254 -169.958)" fill="#5d5d5d"/>
    <path id="Path_68" data-name="Path 68" d="M32.8,0H3.017A3.021,3.021,0,0,0,0,3.017v9.039a3.021,3.021,0,0,0,3.018,3.018H4.742l.022-.15.059-.4.189-1.274.248-1.672a1.049,1.049,0,0,1,1.038-.9H29.518a1.049,1.049,0,0,1,1.038.9l.248,1.672.189,1.274.059.4.022.15H32.8a3.021,3.021,0,0,0,3.017-3.018V3.017A3.021,3.021,0,0,0,32.8,0Zm-4,8.953a1.13,1.13,0,1,1,1.13-1.13A1.131,1.131,0,0,1,28.8,8.953Zm0-2.938a1.13,1.13,0,1,1,1.13-1.13A1.131,1.131,0,0,1,28.8,6.015Zm0,0" transform="translate(0 0)" fill="#5d5d5d"/>
  </g>
</svg>
