<svg xmlns="http://www.w3.org/2000/svg" width="29.908" height="29.908" viewBox="0 0 29.908 29.908">
  <g id="breakfast" transform="translate(-0.002)">
    <g id="Group_838" data-name="Group 838">
      <g id="coffee-maker" transform="translate(0.002)">
        <g id="Group_837" data-name="Group 837">
          <g id="Group_836" data-name="Group 836">
            <path id="Path_1654" data-name="Path 1654" d="M8.1,16.2a3.115,3.115,0,0,0,0,6.231h2.345a4.96,4.96,0,0,0,8.247-3.738V17.446A1.246,1.246,0,0,0,17.446,16.2H8.1Zm0,3.738a.623.623,0,1,1,0-1.246h.623A4.93,4.93,0,0,0,8.9,19.938H8.1Z" fill="#5d5d5d"/>
            <path id="Path_1655" data-name="Path 1655" d="M28.662,0H6.231A2.492,2.492,0,0,0,3.738,2.492V4.985A1.246,1.246,0,0,0,4.985,6.231H19.938V24.923H7.477a3.738,3.738,0,0,0-3.738,3.738,1.246,1.246,0,0,0,1.246,1.246H28.661a1.246,1.246,0,0,0,1.246-1.246V1.246A1.246,1.246,0,0,0,28.662,0ZM26.169,16.2H23.677V11.215h2.492ZM24.923,8.723a1.246,1.246,0,1,1,1.246-1.246A1.246,1.246,0,0,1,24.923,8.723Z" fill="#5d5d5d"/>
            <path id="Path_1656" data-name="Path 1656" d="M12.462,13.708h2.492a3.738,3.738,0,0,0,3.738-3.738V7.477H8.723V8.723H0v2.492H8.952A3.739,3.739,0,0,0,12.462,13.708Z" fill="#5d5d5d"/>
          </g>
        </g>
      </g>
    </g>
  </g>
</svg>
