<?xml version="1.0" encoding="iso-8859-1"?>
<!-- Generator: Adobe Illustrator 19.0.0, SVG Export Plug-In . SVG Version: 6.00 Build 0)  -->
<svg version="1.1" id="Capa_1" xmlns="http://www.w3.org/2000/svg" xmlns:xlink="http://www.w3.org/1999/xlink" x="0px" y="0px"
	 viewBox="0 0 512 512" style="enable-background:new 0 0 512 512;" xml:space="preserve">
<g>
	<g>
		<g>
			<path d="M138.667,277.333c-29.455,0-53.333,23.878-53.333,53.333S109.211,384,138.667,384h40.149
				c35.112,31.082,88.773,27.815,119.854-7.297c13.84-15.635,21.434-35.822,21.33-56.703v-21.333
				c0-11.782-9.551-21.333-21.333-21.333H138.667z M138.667,341.333c-5.891,0-10.667-4.776-10.667-10.667
				c0-5.891,4.776-10.667,10.667-10.667h10.667c0.094,7.211,1.112,14.381,3.029,21.333H138.667z"/>
			<path d="M490.667,0h-384C83.103,0,64,19.103,64,42.667v42.667c0,11.782,9.551,21.333,21.333,21.333h256v320H128
				c-35.346,0-64,28.654-64,64C64,502.449,73.551,512,85.333,512h405.333c11.782,0,21.333-9.551,21.333-21.333V21.333
				C512,9.551,502.449,0,490.667,0z M448,277.333h-42.667V192H448V277.333z M426.667,149.333c-11.782,0-21.333-9.551-21.333-21.333
				c0-11.782,9.551-21.333,21.333-21.333S448,116.218,448,128C448,139.782,438.449,149.333,426.667,149.333z"/>
			<path d="M213.333,234.667H256c35.346,0,64-28.654,64-64V128H149.333v21.333H0V192h153.259
				C162.267,217.479,186.309,234.555,213.333,234.667z"/>
		</g>
	</g>
</g>
<g>
</g>
<g>
</g>
<g>
</g>
<g>
</g>
<g>
</g>
<g>
</g>
<g>
</g>
<g>
</g>
<g>
</g>
<g>
</g>
<g>
</g>
<g>
</g>
<g>
</g>
<g>
</g>
<g>
</g>
</svg>
