<svg id="fridge" xmlns="http://www.w3.org/2000/svg" width="23.114" height="37.075" viewBox="0 0 23.114 37.075">
  <path id="Path_76" data-name="Path 76" d="M96.4,190.667v21.019a1.086,1.086,0,0,0,1.086,1.086h1.241v.077a1.086,1.086,0,1,0,2.172,0v-.077h14.116v.077a1.086,1.086,0,1,0,2.172,0v-.077h1.241a1.086,1.086,0,0,0,1.086-1.086V190.667Zm8.067,4.654H102.14a1.086,1.086,0,1,1,0-2.172h2.327a1.086,1.086,0,1,1,0,2.172Z" transform="translate(-96.4 -176.86)" fill="#5d5d5d"/>
  <path id="Path_77" data-name="Path 77" d="M119.514,11.634V1.086A1.086,1.086,0,0,0,118.428,0H97.486A1.086,1.086,0,0,0,96.4,1.086V11.634ZM102.14,6.981h2.327a1.086,1.086,0,1,1,0,2.172H102.14a1.086,1.086,0,1,1,0-2.172Z" transform="translate(-96.4)" fill="#5d5d5d"/>
</svg>
