<svg id="furniture-and-household" xmlns="http://www.w3.org/2000/svg" width="33.518" height="33.449" viewBox="0 0 33.518 33.449">
  <g id="Group_120" data-name="Group 120" transform="translate(7.918 7.841)">
    <path id="Path_19" data-name="Path 19" d="M264.561,190.775a1.337,1.337,0,1,0,.785,1.386A1.35,1.35,0,0,0,264.561,190.775Z" transform="translate(-251.987 -185.313)" fill="#5d5d5d"/>
    <path id="Path_20" data-name="Path 20" d="M202.767,192.446a1.336,1.336,0,1,0,.41-1.484A1.348,1.348,0,0,0,202.767,192.446Z" transform="translate(-197.342 -185.312)" fill="#5d5d5d"/>
    <path id="Path_21" data-name="Path 21" d="M144.027,193.333a1.338,1.338,0,1,0-1.259-.887A1.352,1.352,0,0,0,144.027,193.333Z" transform="translate(-142.692 -185.312)" fill="#5d5d5d"/>
    <path id="Path_22" data-name="Path 22" d="M264.565,130.773a1.337,1.337,0,1,0,.786,1.386A1.35,1.35,0,0,0,264.565,130.773Z" transform="translate(-251.991 -130.661)" fill="#5d5d5d"/>
    <path id="Path_23" data-name="Path 23" d="M204.026,133.333a1.338,1.338,0,1,0-1.258-.887A1.351,1.351,0,0,0,204.026,133.333Z" transform="translate(-197.343 -130.661)" fill="#5d5d5d"/>
    <path id="Path_24" data-name="Path 24" d="M144.026,133.334a1.338,1.338,0,1,0-1.259-.887A1.352,1.352,0,0,0,144.026,133.334Z" transform="translate(-142.692 -130.662)" fill="#5d5d5d"/>
  </g>
  <g id="Group_121" data-name="Group 121" transform="translate(0 0)">
    <path id="Path_25" data-name="Path 25" d="M33.69,376.423h-.018v1.013c0,4.056,2.277,7.343,5.085,7.343h1.277c0,.054-.008.108-.008.163v2.276c0,.739.415,1.337.926,1.337s.926-.6.926-1.337v-2.276c0-.055,0-.11-.008-.163H52.987c0,.054-.008.108-.008.163v2.276c0,.739.415,1.337.926,1.337s.926-.6.926-1.337v-2.276c0-.055,0-.11-.008-.163H56.1c2.808,0,5.085-3.288,5.085-7.343v-1.013H33.69Z" transform="translate(-30.67 -355.106)" fill="#5d5d5d"/>
    <path id="Path_26" data-name="Path 26" d="M31.3,15.5H3.963V4.074A2.172,2.172,0,0,1,6.308,2.14H8.457a1.4,1.4,0,0,1,.95.353L10.74,3.733l.023.019v.589H10.11a.907.907,0,0,0-.98.808.743.743,0,0,0,.287.572,1.09,1.09,0,0,0,.693.237h8.107a.907.907,0,0,0,.98-.808.907.907,0,0,0-.98-.808h-.653V3.328a3.146,3.146,0,0,0-3.4-2.805A3.616,3.616,0,0,0,11.3,1.816l-.426-.4a3.565,3.565,0,0,0-2.417-.9H6.308C3.935.523,2,2.116,2,4.074v11.44a2.008,2.008,0,0,0-2,1.822,2.053,2.053,0,0,0,2.219,1.83H31.3a2.053,2.053,0,0,0,2.219-1.83A2.053,2.053,0,0,0,31.3,15.5Z" transform="translate(0 -0.523)" fill="#5d5d5d"/>
  </g>
</svg>
