<svg id="measured" xmlns="http://www.w3.org/2000/svg" width="36.771" height="36.771" viewBox="0 0 36.771 36.771">
  <path id="Path_86" data-name="Path 86" d="M36.456,405.188l-2.873-2.873a1.077,1.077,0,0,0-1.523,1.523l1.034,1.034H3.679l1.034-1.034a1.077,1.077,0,1,0-1.523-1.523L.316,405.188a1.077,1.077,0,0,0,0,1.524l2.873,2.873a1.077,1.077,0,0,0,1.523-1.523l-1.034-1.034H33.094l-1.034,1.034a1.077,1.077,0,1,0,1.523,1.523l2.873-2.873A1.077,1.077,0,0,0,36.456,405.188Z" transform="translate(0 -373.128)" fill="#5d5d5d"/>
  <path id="Path_87" data-name="Path 87" d="M24.586,14.541,37.224,5.062a1.077,1.077,0,0,1,1.293,0l12.638,9.478a2.246,2.246,0,0,0,2.7-3.594L40.345.818a4.15,4.15,0,0,0-4.95,0l-13.5,10.128a2.246,2.246,0,1,0,2.7,3.594Z" transform="translate(-19.484 0.001)" fill="#5d5d5d"/>
  <path id="Path_88" data-name="Path 88" d="M181,255h4.309v4.309H181Z" transform="translate(-168.001 -236.686)" fill="#5d5d5d"/>
  <path id="Path_89" data-name="Path 89" d="M271,255h4.309v4.309H271Z" transform="translate(-251.537 -236.686)" fill="#5d5d5d"/>
  <path id="Path_90" data-name="Path 90" d="M81,110.671v11.671a1.077,1.077,0,0,0,1.077,1.077h22.982a1.077,1.077,0,0,0,1.077-1.077V110.671l-12.568-9.426Zm20.109.539v6.464a1.077,1.077,0,0,1-1.077,1.077H87.1a1.077,1.077,0,0,1-1.077-1.077V111.21a1.077,1.077,0,0,1,1.077-1.077h12.927A1.077,1.077,0,0,1,101.109,111.21Z" transform="translate(-75.183 -93.974)" fill="#5d5d5d"/>
  <path id="Path_91" data-name="Path 91" d="M360.309,1.077A1.077,1.077,0,0,0,359.232,0h-2.155A1.077,1.077,0,0,0,356,1.077v.578l4.309,3.232Z" transform="translate(-330.432 0)" fill="#5d5d5d"/>
</svg>
