<svg xmlns="http://www.w3.org/2000/svg" width="35.816" height="32.318" viewBox="0 0 35.816 32.318">
  <g id="monitor" transform="translate(0)">
    <path id="Path_113" data-name="Path 113" d="M33.717,25H2.1A2.1,2.1,0,0,0,0,27.1V47.945a2.1,2.1,0,0,0,2.1,2.1H33.717a2.1,2.1,0,0,0,2.1-2.1V27.1A2.1,2.1,0,0,0,33.717,25Z" transform="translate(0 -25)" fill="#5d5d5d"/>
    <path id="Path_114" data-name="Path 114" d="M104.434,416.078H98.768V413H87.715v3.078H82.049a1.049,1.049,0,1,0,0,2.1h22.385a1.049,1.049,0,1,0,0-2.1Z" transform="translate(-75.334 -385.858)" fill="#5d5d5d"/>
  </g>
</svg>
