<svg id="breakfast" xmlns="http://www.w3.org/2000/svg" width="29.913" height="29.908" viewBox="0 0 29.913 29.908">
  <path id="Path_69" data-name="Path 69" d="M109.644,316.811h-7.983v5.406h6.087a7.725,7.725,0,0,1-.059-.951v-1.5A3.216,3.216,0,0,1,109.644,316.811Z" transform="translate(-95.722 -298.304)" fill="#5d5d5d"/>
  <path id="Path_70" data-name="Path 70" d="M26.943,21.062H26.1a1.459,1.459,0,0,0-1.39-1.017H15.179A1.459,1.459,0,0,0,13.721,21.5V23A5.844,5.844,0,0,0,15.4,27.113l1.06,1.084H14.008a7.6,7.6,0,0,1-1.548-2.489h-7.4a.876.876,0,0,1-.876-.876V17.673a.876.876,0,0,1,.876-.876h12.07a.876.876,0,0,1,.876.876v.62h4.263V.919A.876.876,0,0,0,21.4.043H.876A.876.876,0,0,0,0,.919V29.068a.883.883,0,0,0,.877.883H26.49a.876.876,0,1,0,0-1.753H23.436l1.06-1.084.095-.1h2.352a2.974,2.974,0,0,0,2.97-2.97v-.011a2.974,2.974,0,0,0-2.97-2.97ZM5.031,4.225H17.241a.876.876,0,1,1,0,1.753H5.031a.876.876,0,1,1,0-1.753Zm0,4.182H17.241a.876.876,0,1,1,0,1.753H5.031a.876.876,0,1,1,0-1.753Zm0,4.182H17.241a.876.876,0,1,1,0,1.753H5.031a.876.876,0,1,1,0-1.753ZM28.16,24.044a1.219,1.219,0,0,1-1.218,1.218h-1.22A5.867,5.867,0,0,0,26.171,23v-.19h.772a1.219,1.219,0,0,1,1.218,1.218Z" transform="translate(0 -0.043)" fill="#5d5d5d"/>
</svg>
