<svg id="signal" xmlns="http://www.w3.org/2000/svg" width="37.067" height="37.075" viewBox="0 0 37.067 37.075">
  <path id="Path_92" data-name="Path 92" d="M332.965.164a1.086,1.086,0,0,0,0,2.172,9.787,9.787,0,0,1,9.776,9.776,1.086,1.086,0,0,0,2.172,0A11.962,11.962,0,0,0,332.965.164Zm0,0" transform="translate(-307.847 -0.152)" fill="#5d5d5d"/>
  <path id="Path_93" data-name="Path 93" d="M332.965,60.164a1.086,1.086,0,1,0,0,2.172,5.437,5.437,0,0,1,5.431,5.431,1.086,1.086,0,0,0,2.172,0A7.613,7.613,0,0,0,332.965,60.164Zm0,0" transform="translate(-307.847 -55.807)" fill="#5d5d5d"/>
  <path id="Path_94" data-name="Path 94" d="M334.051,123.423a1.086,1.086,0,0,0,2.172,0,3.262,3.262,0,0,0-3.259-3.259,1.086,1.086,0,0,0,0,2.172A1.087,1.087,0,0,1,334.051,123.423Zm0,0" transform="translate(-307.847 -111.463)" fill="#5d5d5d"/>
  <path id="Path_95" data-name="Path 95" d="M224.034,211H211v4.345h13.034a2.172,2.172,0,1,0,0-4.345Zm0,0" transform="translate(-195.721 -195.721)" fill="#5d5d5d"/>
  <path id="Path_96" data-name="Path 96" d="M30,91H40.934v13.034H30Zm0,0" transform="translate(-27.828 -84.41)" fill="#5d5d5d"/>
  <path id="Path_97" data-name="Path 97" d="M30,315.193a1.086,1.086,0,0,0,1.086,1.086H46.365a1.085,1.085,0,0,0,1.03-1.43l-1.485-4.529a.48.48,0,0,1,.455-.631A9.755,9.755,0,0,0,56.031,301H30Zm0,0" transform="translate(-27.828 -279.204)" fill="#5d5d5d"/>
  <path id="Path_98" data-name="Path 98" d="M15.279,3.331V1.086A1.086,1.086,0,0,0,14.193,0H1.086A1.086,1.086,0,0,0,0,1.086V3.331A1.086,1.086,0,0,0,1.086,4.417H14.193A1.086,1.086,0,0,0,15.279,3.331Zm0,0" fill="#5d5d5d"/>
</svg>
