<svg id="tea-cup" xmlns="http://www.w3.org/2000/svg" width="38.637" height="38.639" viewBox="0 0 38.637 38.639">
  <g id="Group_182" data-name="Group 182" transform="translate(21.018 0)">
    <g id="Group_181" data-name="Group 181">
      <path id="Path_102" data-name="Path 102" d="M281.539,9.345a2.382,2.382,0,0,1-.755-1.421,2.4,2.4,0,0,1,.755-1.421A4.187,4.187,0,0,0,283.033,3.4,4.187,4.187,0,0,0,281.539.289a1.132,1.132,0,0,0-1.51,1.687,1.94,1.94,0,0,1,.74,1.421,1.94,1.94,0,0,1-.74,1.421,4.6,4.6,0,0,0-1.509,3.107,4.6,4.6,0,0,0,1.509,3.107,1.132,1.132,0,0,0,1.51-1.687Z" transform="translate(-278.52 -0.001)" fill="#5d5d5d"/>
    </g>
  </g>
  <g id="Group_184" data-name="Group 184" transform="translate(14.226 0)">
    <g id="Group_183" data-name="Group 183">
      <path id="Path_103" data-name="Path 103" d="M191.539,9.345a2.383,2.383,0,0,1-.755-1.421,2.4,2.4,0,0,1,.755-1.421A4.187,4.187,0,0,0,193.033,3.4,4.187,4.187,0,0,0,191.539.289a1.132,1.132,0,0,0-1.51,1.687,1.94,1.94,0,0,1,.74,1.421,1.94,1.94,0,0,1-.74,1.421,4.6,4.6,0,0,0-1.509,3.107,4.6,4.6,0,0,0,1.509,3.107,1.132,1.132,0,1,0,1.51-1.687Z" transform="translate(-188.52 -0.001)" fill="#5d5d5d"/>
    </g>
  </g>
  <g id="Group_186" data-name="Group 186" transform="translate(7.434 0)">
    <g id="Group_185" data-name="Group 185">
      <path id="Path_104" data-name="Path 104" d="M101.538,9.345a2.383,2.383,0,0,1-.755-1.421,2.4,2.4,0,0,1,.755-1.421A4.187,4.187,0,0,0,103.032,3.4,4.187,4.187,0,0,0,101.538.289a1.132,1.132,0,0,0-1.51,1.687,1.94,1.94,0,0,1,.74,1.421,1.94,1.94,0,0,1-.74,1.421,4.6,4.6,0,0,0-1.509,3.107,4.6,4.6,0,0,0,1.509,3.107,1.132,1.132,0,1,0,1.51-1.687Z" transform="translate(-98.519 -0.001)" fill="#5d5d5d"/>
    </g>
  </g>
  <g id="Group_188" data-name="Group 188" transform="translate(1.782 34.111)">
    <g id="Group_187" data-name="Group 187">
      <path id="Path_105" data-name="Path 105" d="M50.775,452H24.762a1.143,1.143,0,0,0-.778,1.974,9.221,9.221,0,0,0,6.394,2.554h14.78a9.221,9.221,0,0,0,6.394-2.554A1.143,1.143,0,0,0,50.775,452Z" transform="translate(-23.626 -452)" fill="#5d5d5d"/>
    </g>
  </g>
  <g id="Group_190" data-name="Group 190" transform="translate(0 13.659)">
    <g id="Group_189" data-name="Group 189">
      <path id="Path_106" data-name="Path 106" d="M37.95,184.583a3.37,3.37,0,0,0-2.686-1.322H31.733c.015-.379.057-.75.057-1.132A1.131,1.131,0,0,0,30.658,181H21.6v5.191l1.932,1.932a1.131,1.131,0,0,1,.332.8v4.528a1.131,1.131,0,0,1-1.132,1.132H18.206a1.131,1.131,0,0,1-1.132-1.132v-4.528a1.131,1.131,0,0,1,.332-.8l1.932-1.932V181H1.15a1.131,1.131,0,0,0-1.132,1.132c0,6.747,2.32,12.954,6.163,16.98H25.627a18.908,18.908,0,0,0,1.907-2.373,12.86,12.86,0,0,0,11-9.169A3.416,3.416,0,0,0,37.95,184.583Zm-1.589,2.408a10.657,10.657,0,0,1-7.294,7.13,26.221,26.221,0,0,0,2.507-8.6h3.689a1.109,1.109,0,0,1,.893.44A1.181,1.181,0,0,1,36.361,186.991Z" transform="translate(-0.018 -180.997)" fill="#5d5d5d"/>
    </g>
  </g>
  <g id="Group_192" data-name="Group 192" transform="translate(19.32 20.92)">
    <g id="Group_191" data-name="Group 191">
      <path id="Path_107" data-name="Path 107" d="M257.152,277.21l-1.132,1.132v2.927h2.264v-2.927Z" transform="translate(-256.02 -277.21)" fill="#5d5d5d"/>
    </g>
  </g>
</svg>
