<svg id="user_2_" data-name="user (2)" xmlns="http://www.w3.org/2000/svg" width="21.564" height="25.847" viewBox="0 0 21.564 25.847">
  <path id="Path_12" data-name="Path 12" d="M93.257,12.451a6.023,6.023,0,0,0,4.4-1.824,6.023,6.023,0,0,0,1.824-4.4,6.024,6.024,0,0,0-1.824-4.4,6.224,6.224,0,0,0-8.8,0,6.024,6.024,0,0,0-1.824,4.4,6.023,6.023,0,0,0,1.824,4.4A6.025,6.025,0,0,0,93.257,12.451Zm0,0" transform="translate(-82.638 0)" fill="#5d5d5d"/>
  <path id="Path_13" data-name="Path 13" d="M21.512,254.706a15.375,15.375,0,0,0-.209-1.633,12.868,12.868,0,0,0-.4-1.642,8.111,8.111,0,0,0-.675-1.531,5.779,5.779,0,0,0-1.018-1.327,4.488,4.488,0,0,0-1.462-.919,5.054,5.054,0,0,0-1.867-.338,1.9,1.9,0,0,0-1.012.429c-.3.2-.658.427-1.054.68a6.039,6.039,0,0,1-1.364.6,5.3,5.3,0,0,1-3.336,0,6.025,6.025,0,0,1-1.363-.6c-.392-.251-.747-.479-1.055-.68a1.892,1.892,0,0,0-1.011-.429,5.047,5.047,0,0,0-1.866.338,4.484,4.484,0,0,0-1.462.919A5.78,5.78,0,0,0,1.337,249.9a8.127,8.127,0,0,0-.675,1.532,12.9,12.9,0,0,0-.4,1.642,15.323,15.323,0,0,0-.209,1.634C.017,255.2,0,255.715,0,256.233a4.292,4.292,0,0,0,1.275,3.247,4.589,4.589,0,0,0,3.285,1.2H17a4.588,4.588,0,0,0,3.284-1.2,4.29,4.29,0,0,0,1.275-3.247c0-.521-.018-1.034-.052-1.527Zm0,0" transform="translate(0 -234.831)" fill="#5d5d5d"/>
</svg>
