<svg xmlns="http://www.w3.org/2000/svg" width="44.393" height="33.297" viewBox="0 0 44.393 33.297">
  <g id="wifi" transform="translate(0 0)">
    <path id="Path_110" data-name="Path 110" d="M139.194,242.491a1.29,1.29,0,0,1,.222,1.524,3.466,3.466,0,0,1-5.079,1.15,11.751,11.751,0,0,0-13.959,0,3.467,3.467,0,0,1-5.079-1.15,1.29,1.29,0,0,1,.222-1.524A16.661,16.661,0,0,1,139.194,242.491Z" transform="translate(-105.16 -222.507)" fill="#5d5d5d"/>
    <path id="Path_111" data-name="Path 111" d="M87.354,161.018a19.235,19.235,0,0,0-27.049,0,1.3,1.3,0,0,1-1.234.339,3.371,3.371,0,0,1-2.531-2.94,1.3,1.3,0,0,1,.388-1.047,24.2,24.2,0,0,1,33.8,0,1.3,1.3,0,0,1,.388,1.047,3.372,3.372,0,0,1-2.531,2.94A1.3,1.3,0,0,1,87.354,161.018Z" transform="translate(-51.632 -142.989)" fill="#5d5d5d"/>
    <path id="Path_112" data-name="Path 112" d="M43.4,76.642a3.915,3.915,0,0,1-.349.307,1.292,1.292,0,0,1-1.708-.121,26.886,26.886,0,0,0-38.287.005,1.3,1.3,0,0,1-1.742.093q-.126-.1-.244-.22a3.337,3.337,0,0,1,.106-4.982,32.453,32.453,0,0,1,42.054,0A3.338,3.338,0,0,1,43.4,76.642Z" transform="translate(0 -63.992)" fill="#5d5d5d"/>
    <ellipse id="Ellipse_8" data-name="Ellipse 8" cx="3.468" cy="3.468" rx="3.468" ry="3.468" transform="translate(18.729 26.36)" fill="#5d5d5d"/>
  </g>
</svg>
