<svg xmlns="http://www.w3.org/2000/svg" width="54" height="30.038" viewBox="0 0 54 30.038">
  <g id="Group_856" data-name="Group 856" transform="translate(-161 -14.476)">
    <g id="Group_650" data-name="Group 650" transform="translate(0 -0.486)">
      <g id="navbar" transform="translate(122.05 -1)" opacity="0.87">
        <text id="ARCADIA" transform="translate(65.95 43)" fill="#09839c" font-size="10" font-family="CrimsonText-Regular, Crimson Text" letter-spacing="0.15em"><tspan x="-26.023" y="0">ARCADIA</tspan></text>
      </g>
      <g id="Group_136" data-name="Group 136" transform="translate(182 15.487)">
        <path id="Path_36" data-name="Path 36" d="M355.8,81.63a3.37,3.37,0,0,1,3.619-2.931,3.492,3.492,0,0,1-3.439,3.173,3.706,3.706,0,0,1-3.591-3.173,3.283,3.283,0,0,1,3.515,2.955" transform="translate(-349.507 -78.688)" fill="none" stroke="#09839c" stroke-miterlimit="10" stroke-width="1"/>
        <path id="Path_37" data-name="Path 37" d="M336.171,103.163a3.37,3.37,0,0,1-2.931-3.619,3.492,3.492,0,0,1,3.173,3.439,3.706,3.706,0,0,1-3.173,3.591,3.283,3.283,0,0,1,2.955-3.515" transform="translate(-333.229 -96.407)" fill="none" stroke="#09839c" stroke-miterlimit="10" stroke-width="1"/>
        <path id="Path_38" data-name="Path 38" d="M396.814,101.658a3.37,3.37,0,0,0,2.931-3.619,3.492,3.492,0,0,0-3.173,3.439,3.706,3.706,0,0,0,3.173,3.591,3.283,3.283,0,0,0-2.955-3.515" transform="translate(-387.044 -95.128)" fill="none" stroke="#09839c" stroke-miterlimit="10" stroke-width="1"/>
        <path id="Path_39" data-name="Path 39" d="M355.112,144.275a3.37,3.37,0,0,0,3.619,2.931,3.492,3.492,0,0,0-3.439-3.173,3.706,3.706,0,0,0-3.591,3.173,3.283,3.283,0,0,0,3.515-2.955" transform="translate(-348.923 -134.204)" fill="none" stroke="#09839c" stroke-miterlimit="10" stroke-width="1"/>
        <path id="Path_40" data-name="Path 40" d="M351.126,97.389a4.618,4.618,0,0,1,0,7.354" transform="translate(-348.434 -94.576)" fill="none" stroke="#09839c" stroke-linecap="round" stroke-miterlimit="10" stroke-width="1"/>
        <path id="Path_41" data-name="Path 41" d="M388.824,96.962a4.618,4.618,0,0,0,0,7.354" transform="translate(-378.912 -94.213)" fill="none" stroke="#09839c" stroke-linecap="round" stroke-miterlimit="10" stroke-width="1"/>
        <line id="Line_33" data-name="Line 33" x2="3.445" transform="translate(4.644 6.49)" fill="none" stroke="#09839c" stroke-linecap="round" stroke-miterlimit="10" stroke-width="1"/>
        <path id="Path_42" data-name="Path 42" d="M370.168,102.955v1.7h1.639v-1.7" transform="translate(-364.612 -99.305)" fill="none" stroke="#09839c" stroke-miterlimit="10" stroke-width="1"/>
        <path id="Path_43" data-name="Path 43" d="M370.31,130.739v-1.7h1.639v1.7" transform="translate(-364.733 -121.466)" fill="none" stroke="#09839c" stroke-miterlimit="10" stroke-width="1"/>
      </g>
    </g>
  </g>
</svg>
