<svg xmlns="http://www.w3.org/2000/svg" width="126" height="72.363" viewBox="0 0 126 72.363">
  <g id="Group_864" data-name="Group 864" transform="translate(19463 13997.519)">
    <g id="Group_863" data-name="Group 863">
      <g id="navbar" transform="translate(-19462 -13956.155)">
        <text id="ARCADIA" transform="translate(62 24)" fill="#fff" font-size="24" font-family="CrimsonText-Regular, Crimson Text" letter-spacing="0.15em"><tspan x="-62.456" y="0">ARCADIA</tspan></text>
      </g>
      <g id="Group_862" data-name="Group 862" transform="translate(-19415 -13996.999)">
        <path id="Path_36" data-name="Path 36" d="M360.827,85.964s.691-7.273,8.95-7.249c0,0-.8,7.849-8.506,7.849s-8.883-7.849-8.883-7.849,7-.858,8.695,7.308" transform="translate(-345.26 -78.688)" fill="none" stroke="#fff" stroke-miterlimit="10" stroke-width="1"/>
        <path id="Path_37" data-name="Path 37" d="M340.5,108.495s-7.273-.691-7.249-8.951c0,0,7.848.8,7.848,8.506s-7.848,8.883-7.848,8.883-.858-7,7.308-8.695" transform="translate(-333.229 -91.785)" fill="none" stroke="#fff" stroke-miterlimit="10" stroke-width="1"/>
        <path id="Path_38" data-name="Path 38" d="M397.171,106.99s7.273-.691,7.249-8.951c0,0-7.849.8-7.849,8.506s7.849,8.883,7.849,8.883.858-7-7.308-8.695" transform="translate(-373.005 -90.839)" fill="none" stroke="#fff" stroke-miterlimit="10" stroke-width="1"/>
        <path id="Path_39" data-name="Path 39" d="M360.139,144.632s.691,7.273,8.951,7.249c0,0-.8-7.849-8.506-7.849s-8.883,7.849-8.883,7.849,7,.858,8.694-7.308" transform="translate(-344.829 -119.721)" fill="none" stroke="#fff" stroke-miterlimit="10" stroke-width="1"/>
        <path id="Path_40" data-name="Path 40" d="M351.126,97.389a11.423,11.423,0,0,1,0,18.191" transform="translate(-344.468 -90.431)" fill="none" stroke="#fff" stroke-linecap="round" stroke-miterlimit="10" stroke-width="1"/>
        <path id="Path_41" data-name="Path 41" d="M391.512,96.962a11.423,11.423,0,0,0,0,18.19" transform="translate(-366.994 -90.163)" fill="none" stroke="#fff" stroke-linecap="round" stroke-miterlimit="10" stroke-width="1"/>
        <line id="Line_33" data-name="Line 33" x2="8.52" transform="translate(11.488 16.053)" fill="none" stroke="#fff" stroke-linecap="round" stroke-miterlimit="10" stroke-width="1"/>
        <path id="Path_42" data-name="Path 42" d="M370.168,102.955v4.2h4.053v-4.2" transform="translate(-356.425 -93.926)" fill="none" stroke="#fff" stroke-miterlimit="10" stroke-width="1"/>
        <path id="Path_43" data-name="Path 43" d="M370.31,133.243v-4.2h4.054v4.2" transform="translate(-356.514 -110.306)" fill="none" stroke="#fff" stroke-miterlimit="10" stroke-width="1"/>
      </g>
    </g>
  </g>
</svg>
