<svg xmlns="http://www.w3.org/2000/svg" width="33.394" height="33.379" viewBox="0 0 33.394 33.379">
  <g id="swimming-pool" transform="translate(0 -0.001)">
    <path id="Path_55" data-name="Path 55" d="M32.787,303.233c-.933-.385-4.058-2.883-7.779-.4a4.3,4.3,0,0,1-4.785,0,6.253,6.253,0,0,0-6.955,0,4.3,4.3,0,0,1-4.785,0c-3.774-2.515-6.978.146-7.589.2A.978.978,0,0,0,0,304v10.463a.978.978,0,0,0,.978.978H32.416a.978.978,0,0,0,.978-.978V304.137a.979.979,0,0,0-.607-.9Zm0,0" transform="translate(0 -282.065)" fill="#5d5d5d"/>
    <path id="Path_56" data-name="Path 56" d="M346,122.712a2.935,2.935,0,1,0,2.935-2.935A2.938,2.938,0,0,0,346,122.712Zm0,0" transform="translate(-323.433 -111.964)" fill="#5d5d5d"/>
    <path id="Path_57" data-name="Path 57" d="M124.5.378l-7.824,5.869a1.954,1.954,0,0,0-.393,2.74l2.543,3.392L110.3,18.062a8.23,8.23,0,0,1,2.375,1.075,2.348,2.348,0,0,0,2.614,0,8.212,8.212,0,0,1,9.126,0,2.348,2.348,0,0,0,2.614,0,8.281,8.281,0,0,1,1.251-.673L120.582,8.2l6.259-4.7a1.953,1.953,0,0,0,.393-2.739A1.994,1.994,0,0,0,124.5.378Zm0,0" transform="translate(-103.103 0)" fill="#5d5d5d"/>
  </g>
</svg>
