<?xml version="1.0" encoding="utf-8"?>
<!-- Generator: Adobe Illustrator 24.1.2, SVG Export Plug-In . SVG Version: 6.00 Build 0)  -->
<svg version="1.1" id="圖層_1" xmlns="http://www.w3.org/2000/svg" xmlns:xlink="http://www.w3.org/1999/xlink" x="0px" y="0px"
	 viewBox="0 0 217.7 92" style="enable-background:new 0 0 217.7 92;" xml:space="preserve">
<style type="text/css">
	.st0{fill:#09839C;}
	.st1{font-family:'ArialMT';}
	.st2{font-size:40px;}
	.st3{letter-spacing:6;}
	.st4{fill:none;stroke:#09839C;stroke-width:2;stroke-miterlimit:10;}
	.st5{fill:none;stroke:#09839C;stroke-width:2;stroke-linecap:round;stroke-miterlimit:10;}
</style>
<g id="Group_844" transform="translate(22299 16982.521)">
	<text transform="matrix(1 0 0 1 -22296.2598 -16902.5)" class="st0 st1 st2 st3">ARCADIA</text>
	<g id="Group_843" transform="translate(-22545.23 -17060.188)">
		<path id="Path_36" class="st4" d="M352.9,90.8c0,0,0.8-8.1,10.4-8.1c0,0-0.9,8.8-9.9,8.8S343,82.7,343,82.7s8.2-1,10.1,8.2"/>
		<path id="Path_37" class="st4" d="M343.2,101.4c0,0-8.1-0.8-8.1-10c0,0,8.8,0.9,8.8,9.5s-8.8,9.9-8.8,9.9s-1-7.8,8.2-9.7"/>
		<path id="Path_38" class="st4" d="M362.9,100.8c0,0,8.1-0.8,8.1-10c0,0-8.8,0.9-8.8,9.5s8.8,9.9,8.8,9.9s1-7.8-8.2-9.7"/>
		<path id="Path_39" class="st4" d="M352.6,110.5c0,0,0.8,8.1,10.4,8.1c0,0-0.9-8.8-9.9-8.8s-10.4,8.8-10.4,8.8s8.2,1,10.1-8.2"/>
		<path id="Path_40" class="st5" d="M342.7,90.5c5.6,4.3,6.7,12.3,2.4,17.9c-0.7,0.9-1.5,1.7-2.4,2.4"/>
		<path id="Path_41" class="st5" d="M363.1,90.3c-5.6,4.3-6.7,12.3-2.4,17.9c0.7,0.9,1.5,1.7,2.4,2.4"/>
		<line id="Line_33" class="st5" x1="348.3" y1="100.6" x2="357.9" y2="100.6"/>
		<path id="Path_42" class="st4" d="M350.9,92.8v4.7h4.5v-4.7"/>
		<path id="Path_43" class="st4" d="M350.9,108.3v-4.7h4.5v4.7"/>
	</g>
</g>
</svg>
