<svg xmlns="http://www.w3.org/2000/svg" width="65" height="64.999" viewBox="0 0 65 64.999">
  <defs>
    <style>
      .cls-1 {
        fill: #f7f5f5;
      }
    </style>
  </defs>
  <path id="Icon_map-playground" data-name="Icon map-playground" class="cls-1" d="M8.8,42.618a7.577,7.577,0,0,0,0-15.149,7.578,7.578,0,0,0,0,15.149ZM50.1,55.64a.749.749,0,0,1,1.047.165l1.364,1.939a.817.817,0,0,1-.164,1.082l-10,7.471a.757.757,0,0,1-1.05-.167l-1.359-1.939a.812.812,0,0,1,.164-1.08l10-7.472ZM38.791,46.007l-3.968-7.154L32.74,40.417l3.968,7.192ZM29.534,29.3,14.1,1.44l-2.952.02,16.281,29.42ZM44.062,44.033a8.963,8.963,0,0,1,4.009-1.615H62.2c2.789,0,4.239,2.806,4.239,5.658,0,2.868-1.45,4.233-4.239,4.233H49.483L34.172,64.323c-5.381,3.983-8.642-.393-8.642-.393L13.543,51.6c-2.011-2.477-1.576-7.191.835-9.278L30.966,30.17a3.848,3.848,0,0,1,5.49.485,4.09,4.09,0,0,1-.489,5.647L25.347,44.295l7.629,7.749Z" transform="translate(-1.44 -1.44)"/>
</svg>
