<svg xmlns="http://www.w3.org/2000/svg" width="59.002" height="53.103" viewBox="0 0 59.002 53.103">
  <defs>
    <style>
      .cls-1 {
        fill: #fff;
      }
    </style>
  </defs>
  <g id="Icon_material-pool" data-name="Icon material-pool" transform="translate(-3 -4.5)">
    <path id="Path_19" data-name="Path 19" class="cls-1" d="M62,57.6a11.285,11.285,0,0,1-6.431-1.888,5.538,5.538,0,0,0-3.393-1.062,5.3,5.3,0,0,0-3.393,1.062,11.9,11.9,0,0,1-12.863,0,5.538,5.538,0,0,0-3.393-1.062,5.3,5.3,0,0,0-3.393,1.062A11.479,11.479,0,0,1,22.677,57.6a11.285,11.285,0,0,1-6.431-1.888,5.356,5.356,0,0,0-3.393-1.062,5.356,5.356,0,0,0-3.393,1.062A11.479,11.479,0,0,1,3,57.6V51.7A5.3,5.3,0,0,0,6.393,50.64a11.479,11.479,0,0,1,6.461-1.888,11.285,11.285,0,0,1,6.431,1.888A5.3,5.3,0,0,0,22.677,51.7,5.3,5.3,0,0,0,26.07,50.64a11.479,11.479,0,0,1,6.461-1.888,11.285,11.285,0,0,1,6.431,1.888A5.538,5.538,0,0,0,42.355,51.7a5.356,5.356,0,0,0,3.393-1.062,11.9,11.9,0,0,1,12.863,0A5.3,5.3,0,0,0,62,51.7Zm0-13.276a11.285,11.285,0,0,1-6.431-1.888,5.538,5.538,0,0,0-3.393-1.062,5.3,5.3,0,0,0-3.393,1.062,11.9,11.9,0,0,1-12.863,0,5.538,5.538,0,0,0-3.393-1.062,5.3,5.3,0,0,0-3.393,1.062,11.285,11.285,0,0,1-6.431,1.888,11.285,11.285,0,0,1-6.431-1.888,5.538,5.538,0,0,0-3.393-1.062A5.356,5.356,0,0,0,9.49,42.439,11.676,11.676,0,0,1,3,44.327v-5.9a5.3,5.3,0,0,0,3.393-1.062,11.285,11.285,0,0,1,6.431-1.888,11.285,11.285,0,0,1,6.431,1.888,5.538,5.538,0,0,0,3.393,1.062,5.3,5.3,0,0,0,3.393-1.062,11.285,11.285,0,0,1,6.431-1.888A11.285,11.285,0,0,1,38.9,37.365,5.538,5.538,0,0,0,42.3,38.427a5.356,5.356,0,0,0,3.393-1.062,11.9,11.9,0,0,1,12.863,0,5.538,5.538,0,0,0,3.393,1.062v5.9ZM22.677,31.051a5.3,5.3,0,0,0,3.393-1.062A11.479,11.479,0,0,1,32.531,28.1a11.285,11.285,0,0,1,6.431,1.888,5.538,5.538,0,0,0,3.393,1.062,5.356,5.356,0,0,0,3.393-1.062c.354-.207.767-.443,1.21-.679L28.017,10.4c-4.573-4.573-8.791-5.93-16.167-5.9v7.375c5.369-.03,8.526,1.151,11.8,4.425l2.95,2.95-9.588,9.588a16.142,16.142,0,0,1,2.272,1.151A5.3,5.3,0,0,0,22.677,31.051Z" transform="translate(0 0)"/>
    <path id="Path_20" data-name="Path 20" class="cls-1" d="M35.751,11.875A7.375,7.375,0,1,1,28.375,4.5a7.375,7.375,0,0,1,7.375,7.375Z" transform="translate(17.401 0)"/>
  </g>
</svg>
